<?xml version="1.0" encoding="UTF-8"?>
<svg id="Layer_1" data-name="Layer 1" xmlns="http://www.w3.org/2000/svg" viewBox="0 0 252.64 61.6">
  <defs>
    <style>
      .cls-1 {
        fill: #fff;
      }
    </style>
  </defs>
  <polygon class="cls-1" points="44.4 2.8 26 46.16 7.6 2.8 0 2.8 26 61.6 52 2.8 44.4 2.8"/>
  <path class="cls-1" d="M44.8,58.8h7.6l7.1-16.8h22.56l7.14,16.8h7.6L70.8,0l-26,58.8ZM79.38,35.6h-17.14l8.56-20.16,8.58,20.16Z"/>
  <polygon class="cls-1" points="110.4 2.8 103.6 2.8 103.6 58.8 132.4 58.8 132.4 52.4 110.4 52.4 110.4 2.8"/>
  <path class="cls-1" d="M163.2,36.8h18.64c-.48,2.19-1.24,4.24-2.28,6.16-1.04,1.92-2.36,3.63-3.96,5.12-1.6,1.49-3.51,2.65-5.72,3.48-2.21.83-4.71,1.24-7.48,1.24-3.95,0-7.52-.93-10.72-2.8-3.2-1.87-5.75-4.45-7.64-7.76-1.89-3.31-2.84-7.12-2.84-11.44s.95-8.2,2.84-11.48c1.89-3.28,4.44-5.85,7.64-7.72,3.2-1.87,6.77-2.8,10.72-2.8,4.27,0,7.97.84,11.12,2.52,3.15,1.68,5.6,4.01,7.36,7l4.8-4.4c-1.6-2.61-3.56-4.8-5.88-6.56-2.32-1.76-4.93-3.09-7.84-4-2.91-.91-6.09-1.36-9.56-1.36-4.05,0-7.81.71-11.28,2.12-3.47,1.41-6.48,3.41-9.04,6-2.56,2.59-4.55,5.64-5.96,9.16-1.41,3.52-2.12,7.36-2.12,11.52s.71,8,2.12,11.52c1.41,3.52,3.4,6.57,5.96,9.16,2.56,2.59,5.57,4.59,9.04,6,3.47,1.41,7.23,2.12,11.28,2.12,4.27,0,8.07-.79,11.4-2.36,3.33-1.57,6.15-3.72,8.44-6.44,2.29-2.72,4.03-5.83,5.2-9.32,1.17-3.49,1.76-7.19,1.76-11.08h-26v6.4Z"/>
  <rect class="cls-1" x="199.2" y="2.8" width="6.8" height="56"/>
  <path class="cls-1" d="M251.28,37c-.91-1.84-2.07-3.41-3.48-4.72-1.41-1.31-2.95-2.39-4.6-3.24-1.65-.85-3.23-1.55-4.72-2.08-3.25-1.12-5.83-2.25-7.72-3.4-1.89-1.15-3.24-2.37-4.04-3.68-.8-1.31-1.2-2.73-1.2-4.28,0-1.81.69-3.45,2.08-4.92,1.39-1.47,3.6-2.2,6.64-2.2,2.19,0,4.04.43,5.56,1.28,1.52.85,2.81,1.95,3.88,3.28,1.07,1.33,1.95,2.69,2.64,4.08l5.84-3.36c-.91-1.97-2.16-3.85-3.76-5.64-1.6-1.79-3.53-3.25-5.8-4.4-2.27-1.15-4.92-1.72-7.96-1.72s-5.95.63-8.4,1.88c-2.45,1.25-4.37,2.97-5.76,5.16-1.39,2.19-2.08,4.67-2.08,7.44,0,2.56.49,4.72,1.48,6.48.99,1.76,2.25,3.24,3.8,4.44,1.55,1.2,3.17,2.19,4.88,2.96,1.71.77,3.25,1.4,4.64,1.88,2.13.75,4.15,1.59,6.04,2.52,1.89.93,3.43,2.15,4.6,3.64,1.17,1.49,1.76,3.49,1.76,6s-.91,4.67-2.72,6.32c-1.81,1.65-4.21,2.48-7.2,2.48-2.24,0-4.24-.48-6-1.44-1.76-.96-3.35-2.29-4.76-4-1.41-1.71-2.76-3.68-4.04-5.92l-5.44,3.68c1.23,2.45,2.81,4.76,4.76,6.92,1.95,2.16,4.21,3.89,6.8,5.2,2.59,1.31,5.4,1.96,8.44,1.96,2.24,0,4.39-.37,6.44-1.12,2.05-.75,3.89-1.81,5.52-3.2,1.63-1.39,2.91-3.07,3.84-5.04.93-1.97,1.4-4.19,1.4-6.64s-.45-4.76-1.36-6.6Z"/>
</svg>